<?xml version="1.0" encoding="UTF-8" standalone="no"?>
<!DOCTYPE svg PUBLIC "-//W3C//DTD SVG 1.1//EN" "http://www.w3.org/Graphics/SVG/1.1/DTD/svg11.dtd">
<svg version="1.1" xmlns="http://www.w3.org/2000/svg" xmlns:xlink="http://www.w3.org/1999/xlink" preserveAspectRatio="xMidYMid meet" viewBox="0 0 512 512" width="512" height="512"><defs><path d="M437.02 74.98C536.93 174.89 536.93 337.11 437.02 437.02C337.11 536.93 174.89 536.93 74.98 437.02C-24.93 337.11 -24.93 174.89 74.98 74.98C174.89 -24.93 337.11 -24.93 437.02 74.98Z" id="bmEDS74b1"></path><linearGradient id="gradientg18IN0lNTm" gradientUnits="userSpaceOnUse" x1="74.98" y1="74.98" x2="437.02" y2="437.02"><stop style="stop-color: #241a30;stop-opacity: 1" offset="0%"></stop><stop style="stop-color: #004144;stop-opacity: 1" offset="46.64201782820094%"></stop><stop style="stop-color: #753a38;stop-opacity: 1" offset="99.99999999999994%"></stop><stop style="stop-color: #010000;stop-opacity: 1" offset="100%"></stop></linearGradient><path d="M128 256.01C128 248.16 134.37 241.79 142.22 241.79C150.08 241.79 156.44 248.16 156.44 256.01C156.44 263.86 150.08 270.23 142.22 270.23C134.37 270.23 128 263.86 128 256.01M370.63 270.23C378.01 270.23 384 264.25 384 256.86C384 256.86 384 256.86 384 256.86C384 256.69 384 255.33 384 255.16C384 247.77 378.01 241.79 370.63 241.79C370.63 241.79 370.63 241.79 370.63 241.79C353.39 241.79 215.5 241.79 198.26 241.79C190.87 241.79 184.89 247.77 184.89 255.16C184.89 255.33 184.89 256.69 184.89 256.86C184.89 264.25 190.87 270.23 198.26 270.23C232.73 270.23 353.39 270.23 370.63 270.23ZM370.63 199.12C378.01 199.12 384 193.13 384 185.75C384 185.75 384 185.75 384 185.75C384 185.58 384 184.21 384 184.04C384 176.66 378.01 170.68 370.63 170.68C370.63 170.68 370.63 170.68 370.63 170.68C347.7 170.68 164.3 170.68 141.37 170.68C133.99 170.68 128 176.66 128 184.04C128 184.04 128 184.04 128 184.04C128 184.21 128 185.58 128 185.75C128 193.13 133.99 199.12 141.37 199.12C187.22 199.12 347.7 199.12 370.63 199.12ZM370.63 341.35C378.01 341.35 384 335.36 384 327.98C384 327.98 384 327.98 384 327.98C384 327.81 384 326.44 384 326.27C384 318.89 378.01 312.9 370.63 312.9C370.63 312.9 370.63 312.9 370.63 312.9C347.7 312.9 164.3 312.9 141.37 312.9C133.99 312.9 128 318.89 128 326.27C128 326.27 128 326.27 128 326.27C128 326.44 128 327.81 128 327.98C128 335.36 133.99 341.35 141.37 341.35C187.22 341.35 347.7 341.35 370.63 341.35Z" id="e9dZfPbEHH"></path></defs><g><g><g><use xlink:href="#bmEDS74b1" opacity="1" fill="url(#gradientg18IN0lNTm)"></use></g><g><use xlink:href="#e9dZfPbEHH" opacity="1" fill="#ffffff" fill-opacity="1"></use><g><use xlink:href="#e9dZfPbEHH" opacity="1" fill-opacity="0" stroke="#000000" stroke-width="1" stroke-opacity="0"></use></g></g></g></g></svg>